<?xml version="1.0" encoding="UTF-8" standalone="no"?>
<svg
   inkscape:version="1.2.2 (b0a8486541, 2022-12-01, custom)"
   sodipodi:docname="logo.svg"
   viewBox="0 0 89.17067 32.426666"
   height="32.426666"
   width="89.17067"
   xml:space="preserve"
   id="svg10"
   version="1.1"
   xmlns:inkscape="http://www.inkscape.org/namespaces/inkscape"
   xmlns:sodipodi="http://sodipodi.sourceforge.net/DTD/sodipodi-0.dtd"
   xmlns="http://www.w3.org/2000/svg"
   xmlns:svg="http://www.w3.org/2000/svg"
   xmlns:rdf="http://www.w3.org/1999/02/22-rdf-syntax-ns#"
   xmlns:cc="http://creativecommons.org/ns#"
   xmlns:dc="http://purl.org/dc/elements/1.1/"><metadata
     id="metadata16"><rdf:RDF><cc:Work
         rdf:about=""><dc:format>image/svg+xml</dc:format><dc:type
           rdf:resource="http://purl.org/dc/dcmitype/StillImage" /></cc:Work></rdf:RDF></metadata><defs
     id="defs14"><clipPath
       id="clipPath28"
       clipPathUnits="userSpaceOnUse"><path
         id="path26"
         d="M 0,24.32 H 66.878 V 0 H 0 Z" /></clipPath></defs><sodipodi:namedview
     inkscape:current-layer="g34"
     inkscape:window-maximized="1"
     inkscape:window-y="0"
     inkscape:window-x="0"
     inkscape:cy="14.431187"
     inkscape:cx="48.000347"
     inkscape:zoom="11.260335"
     showgrid="false"
     id="namedview12"
     inkscape:window-height="1055"
     inkscape:window-width="1920"
     inkscape:pageshadow="2"
     inkscape:pageopacity="0"
     guidetolerance="10"
     gridtolerance="10"
     objecttolerance="10"
     borderopacity="1"
     bordercolor="#666666"
     pagecolor="#ffffff"
     inkscape:showpageshadow="2"
     inkscape:pagecheckerboard="0"
     inkscape:deskcolor="#d1d1d1" /><g
     transform="matrix(1.3333333,0,0,-1.3333333,0,32.426667)"
     inkscape:label="Marianne"
     inkscape:groupmode="layer"
     id="g18"><path
       sodipodi:type="star"
       style="fill:#ffe513;fill-opacity:1;stroke:#ffc500;stroke-width:0.944882;stroke-linecap:square;stroke-miterlimit:3;stroke-dasharray:none;stroke-opacity:1"
       id="path320-3"
       inkscape:flatsided="false"
       sodipodi:sides="5"
       sodipodi:cx="53.607128"
       sodipodi:cy="9.6437426"
       sodipodi:r1="5.6070709"
       sodipodi:r2="2.8035355"
       sodipodi:arg1="0.66416747"
       sodipodi:arg2="1.292486"
       inkscape:rounded="0"
       inkscape:randomized="0"
       d="M 58.022305,13.099962 54.377347,12.339401 51.684433,14.910856 51.281416,11.209269 48.00366,9.4427781 51.39954,7.9156327 52.06669,4.252426 54.568476,7.0101857 58.258553,6.5126902 56.408862,9.7442248 Z"
       transform="matrix(0.46459194,0.09860223,0.18529283,-0.5434394,15.009184,15.105874)"
       inkscape:transform-center-x="-0.034068877"
       inkscape:transform-center-y="0.18265012" /><path
       id="path20"
       style="fill:#ffffff;fill-opacity:1;fill-rule:nonzero;stroke:none"
       d="M 0,0 H 66.878 V 24.32 H 0 Z" /><g
       id="g22"><g
         clip-path="url(#clipPath28)"
         id="g24"><g
           transform="matrix(0.92433879,0,0,1.0003343,19.748405,6.8975052)"
           id="g30"><path
             id="path32"
             style="fill:#000091;fill-opacity:1;fill-rule:nonzero;stroke:none"
             d="M 1.7407224,17.423336 V 5.2490193 c 0.5515063,-0.00317 1.0948527,-0.085116 1.659668,-0.1479492 0.5969994,-0.046 1.1490944,-0.1838009 1.7460938,-0.3208008 0.2299998,0 0.2759611,-0.3685508 0.459961,-0.4145508 0.2749997,-0.092 0.551637,-1.057e-4 0.8276367,-0.1831055 0,0.091 -0.046,0.1833908 0,0.2753907 0.1839998,0.1829998 0.4121916,-0.04659 0.5961914,0.04541 0.3679997,0.2289998 -0.3199064,0.6433324 -0.5039062,0.9653321 0,0.046 0.04541,0.092285 0.04541,0.092285 0.3669997,-0.3219996 0.642563,-0.6899221 1.1015625,-0.9199219 0.2299998,-0.091 0.7819414,-0.2291247 0.6899415,0.046875 -0.2299998,0.5049995 -0.6891528,0.9194185 -1.0561524,1.378418 v 0.1831055 c -0.092,0 -0.091695,0.046285 -0.1376953,0.092285 V 6.5263631 C 6.9854337,6.618363 7.0314529,6.8024492 6.939453,6.939449 6.8024531,7.1694488 6.8927576,7.4915509 6.8017577,7.7685506 6.7097578,8.0425503 6.6646522,8.2718478 6.6186522,8.5478475 6.4806524,9.3298467 6.2961013,10.018903 6.2041014,10.753902 c -0.092,0.872999 0.5054575,1.562216 0.9184571,2.345215 0.3219997,0.55 0.6905983,1.102239 1.2875977,1.469238 0.1379998,0.553 0.5060472,1.012169 0.8730469,1.472168 0.3669996,0.447 0.9774339,0.718993 1.4194339,0.916993 0.558029,0.25033 0.999557,0.394132 1.123535,0.433593 v 0.03223 z M 3.6113279,4.8901326 C 3.4953124,4.8966013 3.366195,4.8710896 3.2626951,4.8710896 2.7621125,4.9068455 2.26217,4.8029977 1.7407224,4.6909138 V 4.5209919 c 0.6499697,0.1980996 1.2838597,0.3889265 1.9819337,0.3500977 -0.03425,0.0115 -0.072656,0.016887 -0.1113282,0.019043 z M 1.7407224,3.8237263 V 2.4540974 C 2.7711474,2.1559836 3.7896867,1.804827 4.642578,1.1489215 3.7147276,0.68545523 2.7460621,0.45420104 1.7407224,0.24218324 v -0.61523439 c 0.066581,-0.0236404 0.1354111,-0.0334541 0.1889649,-0.0864258 -0.059344,-0.0593438 -0.1225589,-0.0965883 -0.1889649,-0.12451172 V -2.8281293 c 1.447864,0.9625199 3.3523716,0.7442493 4.9687501,1.3125 0.1369999,0.091 0.2750861,0.1819259 0.413086,0.2739258 0.2299998,0.093 0.4139417,0.32342592 0.6899414,0.46142578 0.3669996,0.27599972 0.6442267,0.59615283 0.7822266,1.05615237 0,0.046 -0.046875,0.0922852 -0.046875,0.0922852 C 7.9508521,-0.27483955 7.2613663,-0.78095388 6.5263671,-1.1479535 5.561368,-1.653953 4.5036746,-1.5621998 3.4926756,-1.7001996 c 0.046,0.093 0.1389805,0.09375 0.2299805,0.09375 0,0.1359998 0.091105,0.1819259 0.1831054,0.2739258 h 0.1376953 c 0.046,0 0.046285,0.09082 0.092285,0.09082 0.092,0 0.2305703,0.046875 0.1845703,0.046875 -0.1379998,0.1839998 -0.4145315,-0.1379999 -0.6445312,0 0.092,0.092 0.045695,0.22939066 0.1376953,0.27539062 h 0.1845703 c 0,0.0919999 0.092285,0.18457032 0.092285,0.18457032 0.6889994,0.41299958 1.333075,0.73502773458 1.9760743,1.10302737 -0.1379999,0 -0.2306759,-0.13887491 -0.3676758,-0.046875 0.091,0 -1.796e-4,0.13916016 0.09082,0.13916016 0.5059995,0.13799986 0.9202935,0.4121916 1.425293,0.59619143 -0.1839998,0 -0.3223712,-0.13799988 -0.5053711,0 0.092,0.047 0.1373908,0.1376953 0.2753907,0.1376953 v 0.1391602 c 0,0.046 0.046285,0.04541 0.092285,0.04541 -0.046,0 -0.092285,0.04541 -0.092285,0.04541 0.046,0.093 0.1848555,0.045695 0.2768554,0.1376953 -0.046,0 -0.1391601,-1.25e-4 -0.1391601,0.046875 0.1379998,0.1829998 0.3691213,0.2293907 0.5991211,0.2753906 -0.047,0.093 -0.1845703,-7.147e-4 -0.1845703,0.092285 0,0.045 0.046285,0.04541 0.092285,0.04541 h -0.092285 c -0.092,0.046 -0.04541,0.1385704 -0.04541,0.1845704 0.2759997,0.3209996 0.2746213,0.7340277 0.4116211,1.1030273 -0.046,0 -0.09082,4.102e-4 -0.09082,0.04541 C 7.3525004,2.8499768 6.6187101,2.6659292 5.9287108,2.4819294 H 5.6987303 c -0.2299997,-0.091 -0.5522268,-0.09059 -0.7822266,0.04541 -0.1839998,0.092 -0.2744963,0.2301408 -0.4584961,0.3691407 C 4.090008,3.12548 3.7225697,3.3102616 3.3095701,3.4472614 2.7947797,3.6116897 2.2698433,3.7369937 1.7407224,3.8237263 Z M 10.490234,-0.86084413 C 9.9961059,-0.88347106 9.5985777,-1.2413796 9.2363281,-1.5625043 c -0.092,-0.045 -0.1835157,0.046875 -0.2285157,0.046875 C 8.3178131,-1.7456291 7.8125578,-2.3441218 7.1225585,-2.6201215 v 0.092285 c -0.2759997,-0.092 -0.5421722,-0.2578008 -0.8261719,-0.3208007 -0.4139996,-0.091 -0.7819028,-0.046875 -1.1499024,-0.046875 -0.5569994,-0.056 -1.1129225,-0.1783634 -1.6699219,-0.2973632 l -0.04834,-0.011719 c -0.2989997,-0.081 -0.5819339,-0.1932384 -0.8569337,-0.3442383 -0.011,-0.007 -0.020762,-0.013043 -0.030762,-0.019043 -0.023,-0.028 -0.044918,-0.056102 -0.065918,-0.079102 -0.099,-0.1089999 -0.1839415,-0.2083907 -0.3149414,-0.2753906 -0.1511083,-0.076889 -0.2869451,-0.1833236 -0.4189453,-0.2973633 v -2.6748048 h 0.9785157 c 0.8749991,0.6289994 1.7482395,0.9282975 2.9692383,1.5292969 0.5769994,0.2849997 1.8967505,0.8918677 2.3437501,1.3388672 0.2609997,0.2609998 0.5246213,0.5407777 0.7866211,0.8217774 h -0.00586 c 0.4879995,0.5529995 0.967692,1.0789888 1.5336918,1.5629883 0.171999,0.1549999 0.339512,0.2909025 0.499511,0.3999024 0.046,0.046 0.04582,0.1385703 0.09082,0.1845703 -0.229,-0.091 -0.367657,-0.2756759 -0.597657,-0.3676758 -0.046,0 -0.09141,0.046285 -0.04541,0.092285 0.164,0.1229998 0.326723,0.2461407 0.490723,0.3691406 -0.01,-9.9999e-4 -0.02076,-0.001465 -0.03076,-0.001465 -0.046,0 -0.04541,0.0462852 -0.04541,0.0922852 -0.07475,0.0115 -0.147672,0.0149512 -0.218262,0.0117188 z M 2.0834959,-2.8442426 c -0.1191226,-0.040011 -0.2322387,-0.087422 -0.3427735,-0.140625 v -0.077637 c 0.08883,0.05077 0.1776421,0.102304 0.2666016,0.1523437 0.026,0.022 0.050172,0.043918 0.076172,0.065918 z" /></g><g
           transform="translate(66.8799,24.32)"
           id="g34"><path
             id="path36"
             style="fill:#000091;fill-opacity:1;fill-rule:nonzero;stroke:none;stroke-width:0.961586"
             d="m -20.438123,0.00813055 h -7.18779 c 0,0 0.04529,-0.008002673 0.230161,-0.11503844 0.195959,-0.11403812 0.449228,-0.26108726 0.608214,-0.35111735 0.313351,-0.17705917 0.61561,-0.39813306 0.810646,-0.73624606 0.08596,-0.1370458 0.213522,-0.4131381 0.128483,-0.5971996 -0.08504,-0.2300769 -0.128483,-0.5971996 -0.340157,-0.6902307 -0.256042,-0.1370458 -0.59435,-0.1370458 -0.891987,-0.09103 -0.171003,0 -0.340157,0.046015 -0.510235,0.09103 0.636869,-0.2750919 1.232144,-0.5971995 1.65734,-1.2404145 0.04252,-0.092031 0.210749,-0.1380461 0.381751,-0.1380461 0.04252,0 0.04252,-0.092031 0.04252,-0.1380462 -0.08596,-0.092031 -0.171003,-0.1380461 -0.128483,-0.2760923 h 0.128483 c 0.211674,0.092031 0.170078,0.5521846 0.467715,0.4141385 0.211674,-0.1380462 0.295789,-0.4601538 0.169154,-0.6892304 -0.169154,-0.1840615 -0.340156,-0.3221076 -0.50931,-0.4601538 -0.04252,-0.092031 -0.04252,-0.2300769 0,-0.3221076 0.126634,-0.1840615 0.169154,-0.3671227 0.211673,-0.5511842 0.128483,-0.3221077 0.171003,-0.6902307 0.297637,-1.011338 0.171003,-0.6902307 0.340157,-1.379461 0.297638,-2.0686914 0,-0.368123 -0.171003,-0.6892303 -0.04252,-1.0573534 0.08504,-0.369123 0.297637,-0.644215 0.467715,-0.965323 0.169154,-0.277092 0.339233,-0.460153 0.465867,-0.737246 0.256042,-0.459153 0.723757,-0.919307 0.510235,-1.469491 -0.126634,-0.323108 -0.59435,-0.277093 -0.891987,-0.460154 -0.254193,-0.230077 -0.171201,-0.519259 -0.04456,-0.749336 0.212598,-0.414139 -1.875445,-0.546934 -2.173082,-0.68498 0.08411,-0.137046 1.111561,-0.553096 1.564057,-0.404298 0.254119,-0.146564 0.476976,-0.368123 0.350341,-0.5982 -0.170078,-0.275092 -0.419582,-0.414139 -0.16354,-0.827277 0.169154,-0.321107 0.06008,-0.680227 -0.04252,-1.012338 -0.126634,-0.413138 -0.466791,-0.596199 -0.764428,-0.68823 -0.256042,-0.09303 -0.55183,-0.09303 -0.807872,-0.04601 -0.08412,0.04601 -0.169154,0.09203 -0.255118,0.09203 -0.720984,0.09203 -1.442892,0.321108 -2.16665,0.321108 -0.210749,-0.04602 -0.424271,-0.09203 -0.593425,-0.184062 -0.192263,-0.153051 -0.363265,-0.318106 -0.514857,-0.492164 l -0.0055,-0.006 c -0.03143,-0.03701 -0.06101,-0.07402 -0.09151,-0.111037 -0.01941,-0.02301 -0.03697,-0.04702 -0.05546,-0.07002 -0.01202,-0.01701 -0.02311,-0.03101 -0.03605,-0.04702 -0.123861,-0.168056 -0.235706,-0.347116 -0.333686,-0.530177 -0.0065,-0.012 -0.01387,-0.02401 -0.01941,-0.03601 -0.01202,-0.02101 -0.02126,-0.04301 -0.03328,-0.06302 -0.138651,-0.280093 -0.244949,-0.565189 -0.32167,-0.845282 -0.287469,-1.051352 -0.160835,-1.955654 0.03975,-2.174727 0.05823,-0.06102 1.403146,-0.510171 2.340426,-0.961321 0.439061,-0.211071 0.746866,-0.375126 1.002907,-0.549184 h 6.752422 z"
             sodipodi:nodetypes="ccccccccccscccccccccccccccccccccccccccccccccccccccc" /></g><g
           transform="matrix(0.92433879,0,0,1.0003343,40.691796,15.452564)"
           id="g38"><path
             id="path40"
             style="fill:#9c9b9b;fill-opacity:1;fill-rule:nonzero;stroke:none"
             d="M 0,0 C 0.185,-0.046 0.459,-0.046 0.459,-0.138 0.368,-0.505 -0.184,-0.597 -0.46,-0.965 h -0.138 c -0.137,-0.092 -0.09,-0.322 -0.229,-0.322 -0.138,0.046 -0.276,0 -0.414,-0.046 0.184,-0.183 0.414,-0.322 0.689,-0.275 0.047,0 0.138,-0.092 0.138,-0.184 0,0 0.046,0 0.092,0.046 0.046,0 0.093,0 0.093,-0.046 v -0.184 c -0.139,-0.184 -0.369,-0.092 -0.553,-0.138 0.368,-0.092 0.736,-0.092 1.057,0 0.276,0.092 0,0.552 0.184,0.781 -0.091,0 0,0.138 -0.091,0.138 0.091,0.092 0.183,0.23 0.276,0.276 0.091,0 0.229,0.046 0.275,0.138 0,0.092 -0.184,0.138 -0.138,0.23 0.276,0.183 0.506,0.459 0.414,0.735 -0.046,0.138 -0.414,0.138 -0.644,0.23 -0.229,0.091 -0.505,0 -0.78,-0.046 -0.231,0 -0.459,-0.138 -0.69,-0.184 -0.322,-0.092 -0.598,-0.276 -0.874,-0.46 0.322,0.138 0.644,0.184 1.011,0.276 0.277,0 0.511,0.068 0.782,0" /></g></g></g><path
       sodipodi:type="star"
       style="fill:#000091;fill-opacity:1;stroke:#ffc500;stroke-width:0.944882;stroke-linecap:square;stroke-miterlimit:3;stroke-dasharray:none;stroke-opacity:1"
       id="path320"
       inkscape:flatsided="false"
       sodipodi:sides="5"
       sodipodi:cx="53.607128"
       sodipodi:cy="9.6437426"
       sodipodi:r1="5.6070709"
       sodipodi:r2="2.8035355"
       sodipodi:arg1="0.66416747"
       sodipodi:arg2="1.292486"
       inkscape:rounded="0"
       inkscape:randomized="0"
       d="M 58.022305,13.099962 54.377347,12.339401 51.684433,14.910856 51.281416,11.209269 48.00366,9.4427781 51.39954,7.9156327 52.06669,4.252426 54.568476,7.0101857 58.258553,6.5126902 56.408862,9.7442248 Z"
       transform="matrix(0.52157201,0.11069535,0.20801815,-0.61008975,10.742709,15.269142)"
       inkscape:transform-center-x="-0.038246881"
       inkscape:transform-center-y="0.20504946" /></g></svg>
